<?xml version="1.0" encoding="UTF-8"?>
<svg id="Layer_1" data-name="Layer 1" xmlns="http://www.w3.org/2000/svg" viewBox="0 0 387.45 387.45">
  <defs>
    <style>
      .cls-1 {
        fill: #fff;
      }
    </style>
  </defs>
  <path class="cls-1" d="M358.35,91.38L91.38,358.35c3.92,2.44,7.92,4.73,11.97,6.86L365.21,103.35c-2.13-4.05-4.42-8.04-6.86-11.97Z"/>
  <path class="cls-1" d="M376.62,129.61l-247.02,247.02c4.76,1.66,9.58,3.12,14.43,4.4l236.99-236.99c-1.28-4.85-2.74-9.67-4.4-14.43Z"/>
  <path class="cls-1" d="M386.65,176.07l-210.58,210.58c6,.54,12.02.81,18.04.79l193.34-193.34c.02-6.02-.25-12.04-.79-18.04Z"/>
  <path class="cls-1" d="M382.65,236.58l-146.07,146.07c9.18-2.08,18.23-4.83,27.09-8.25l110.73-110.73c3.43-8.85,6.18-17.91,8.25-27.09Z"/>
  <path class="cls-1" d="M221.2,1.75L1.75,221.2c.76,5.32,1.75,10.62,2.96,15.88L237.07,4.7c-5.26-1.2-10.55-2.2-15.88-2.96Z"/>
  <path class="cls-1" d="M265.77,13.67L13.67,265.77c1.76,4.4,3.69,8.75,5.79,13.04L278.81,19.46c-4.29-2.1-8.64-4.03-13.04-5.79Z"/>
  <path class="cls-1" d="M302.63,33.31L33.31,302.63c2.52,3.69,5.17,7.31,7.97,10.86L313.49,41.29c-3.55-2.8-7.17-5.46-10.86-7.97Z"/>
  <path class="cls-1" d="M333.25,59.19L59.19,333.25c3.23,3.11,6.53,6.08,9.91,8.92L342.17,69.1c-2.84-3.38-5.81-6.69-8.92-9.91Z"/>
  <path class="cls-1" d="M56.56,56.56c-15.62,15.62-28.01,33.25-37.19,52.06L108.62,19.37c-18.8,9.17-36.43,21.56-52.06,37.19Z"/>
  <path class="cls-1" d="M163.51,2.14L2.14,163.51c-1.09,6.95-1.81,13.95-2.14,20.97L184.48,0c-7.02.33-14.02,1.05-20.97,2.14Z"/>
</svg>