<svg xmlns="http://www.w3.org/2000/svg" viewBox="0 0 350.38 347.46" fill="#f5f5f5" xmlns:v="https://vecta.io/nano"><path d="M178.78,332.65h-7.18c-43.9-7.98-80.61-34.32-100.56-73.43-14.37-27.93-19.95-59.06-11.17-90.19,7.98-25.54,23.15-47.89,47.09-61.46,19.15-10.38,40.7-15.16,63.05-8.78,22.35,6.39,41.5,23.94,44.7,47.89,1.6,13.57-3.99,28.73-16.76,35.12-6.39,3.19-12.77,3.19-19.16,0-3.99-2.39-6.39-5.59-8.78-8.78-3.19-2.39-7.18-3.19-10.38-3.19-11.17,1.6-18.36,11.97-19.95,23.15-2.39,16.76,6.38,31.93,19.15,42.3,15.16,11.97,33.52,16.76,52.68,14.37,18.36-3.19,34.32-10.38,47.89-23.15,24.74-23.15,35.92-55.87,33.52-89.39-3.99-39.91-24.74-74.23-59.06-98.17-19.95-12.77-39.91-19.16-62.25-23.94h7.18c37.51,7.98,67.84,25.54,90.99,56.67,23.15,31.93,31.13,69.44,20.75,106.95-6.39,20.75-15.96,39.11-34.32,53.47-21.55,17.56-47.89,23.94-75.02,17.56-23.15-5.59-41.5-23.94-44.69-47.89-3.19-19.16,10.38-40.7,31.13-37.51,7.18,1.6,9.58,9.58,15.96,12.77,7.18,3.19,15.16,0,19.95-5.59,7.98-7.98,8.78-19.95,6.38-30.33-6.38-27.93-32.72-41.5-58.26-43.1-39.11-1.6-72.63,27.14-87,62.25-11.17,27.93-9.58,59.06,1.6,87,19.16,46.29,63.05,78.22,112.54,85.4h0Z"/><path d="M178.78 333.45h-7.18s-.1 0-.14-.01c-44.45-8.08-81.31-35-101.13-73.85-15.56-30.26-19.44-61.65-11.23-90.77 8.71-27.86 25.12-49.27 47.46-61.93 21.69-11.75 43.11-14.72 63.66-8.85 24.5 7 42.27 26.06 45.27 48.55 2.1 17.84-7.12 30.9-17.19 35.94-6.59 3.3-13.28 3.3-19.87 0-4.14-2.48-6.61-5.75-8.99-8.92-3.47-2.56-7.57-2.96-9.75-2.97-8.15 1.19-17.24 8.59-19.22 22.46-2.13 14.94 4.74 30.09 18.87 41.57 14.81 11.69 32.82 16.6 52.07 14.19 19.03-3.31 34.56-10.81 47.44-22.94 23.6-22.07 35.72-54.42 33.27-88.75-1.97-19.69-8.04-38.11-18.04-54.72-9.98-16.57-23.67-30.99-40.68-42.86-21.81-13.96-43.57-19.88-61.96-23.82a.8.8 0 0 1-.63-.86c.04-.41.39-.71.79-.71h7.18c.06 0 .11 0 .17.02 39.25 8.35 69.16 26.99 91.46 56.97 23.65 32.61 31.06 70.84 20.88 107.64-7.52 24.43-18.19 41.05-34.6 53.89-21.81 17.77-48.69 24.06-75.7 17.71-24.37-5.88-42.15-24.94-45.3-48.56-1.84-11.05 1.85-23.16 9.41-30.81 6.12-6.2 14.16-8.89 22.63-7.59 4.32.96 6.99 4.02 9.57 6.98 1.94 2.23 3.95 4.53 6.63 5.87 7.18 3.19 14.72-.41 18.99-5.39 6.75-6.76 9-17.54 6.21-29.63-2.91-12.72-10.38-23.42-21.61-30.94-9.87-6.61-22.63-10.71-35.92-11.54-18.27-.74-36.35 5.2-52.25 17.2-14.68 11.08-26.74 26.91-33.96 44.56-10.63 26.57-10.06 57.25 1.6 86.4 18.64 45.05 61.53 77.59 111.91 84.91a.8.8 0 0 1 .68.85.8.8 0 0 1-.8.74zm-73.11-32.1a138.73 138.73 0 0 0 29.47 18.8c-10.61-5.11-20.51-11.44-29.47-18.8zm57.92-136.62c-6.48 0-12.55 2.57-17.36 7.44-7.21 7.3-10.73 18.86-8.97 29.45 3.06 22.98 20.37 41.52 44.1 47.24 26.51 6.24 52.91.06 74.33-17.4 16.15-12.64 26.65-29.01 34.06-53.09 9.17-33.17 3.85-67.53-14.94-97.78l.63 1.03c10.13 16.81 16.27 35.45 18.27 55.4 2.49 34.83-9.82 67.65-33.77 90.05-13.11 12.34-28.91 19.98-48.3 23.35-19.73 2.47-38.15-2.56-53.31-14.53-14.58-11.85-21.67-27.53-19.45-43.04 2.1-14.72 11.88-22.57 20.63-23.82h.11c2.38 0 6.97.44 10.85 3.35a1.21 1.21 0 0 1 .16.16c2.41 3.22 4.7 6.26 8.55 8.57 6.06 3.03 12.27 3.03 18.39-.03 13.21-6.61 17.72-22.42 16.32-34.31-2.91-21.85-20.23-40.39-44.12-47.21-20.14-5.76-41.15-2.82-62.45 8.71-19.16 10.86-33.9 28.29-43.05 50.77 7.37-17.56 19.45-33.27 34.11-44.33 16.19-12.22 34.62-18.28 53.29-17.52 13.59.85 26.63 5.04 36.73 11.81 11.58 7.76 19.28 18.79 22.28 31.91 2.92 12.64.51 23.96-6.6 31.07-4.62 5.39-12.88 9.29-20.84 5.75-2.99-1.49-5.1-3.92-7.15-6.26-2.52-2.89-4.9-5.62-8.66-6.46-1.29-.2-2.57-.3-3.84-.3zm-101.39-.2c-.55 1.56-1.08 3.14-1.58 4.74a101.56 101.56 0 0 0-1.23 4.78c.79-3.22 1.73-6.39 2.81-9.52zM179.82 16.04c12.54 3.01 26.31 7.21 40.41 14.26-12.18-6.28-25.62-11.02-40.41-14.26z"/><path d="M226.67 344.62c-70.24 11.97-146.86-30.33-170-99.77-11.97-37.51-7.98-77.42 15.96-110.14C87 116.35 104.56 103.58 126.9 98c31.13-7.98 64.65 3.19 79.81 31.93 8.78 16.76 5.59 43.1-14.37 50.28-8.78 3.19-16.76-1.6-23.94-4.79-6.39-3.19-13.57.8-18.36 6.39-6.39 7.98-7.18 17.56-4.79 27.14 5.59 23.94 27.93 37.51 51.08 40.7 23.94 2.39 47.89-5.59 66.24-22.35 19.16-16.76 29.53-39.11 34.32-63.85 6.39-35.92-3.19-69.44-24.74-98.97-35.11-47.09-91.77-67.84-148.44-60.66 3.19 0 5.59-1.6 7.98-2.39 22.35-2.39 44.69 2.39 66.24 7.98 31.13 12.77 60.66 30.33 79.81 60.66 9.58 15.96 16.76 31.93 20.75 51.08 3.99 22.35 2.39 44.7-6.39 65.45-12.77 34.32-42.3 62.25-80.61 65.45-14.37.8-28.73-.8-42.3-7.98-21.55-11.97-36.71-36.71-27.14-60.66 3.19-6.38 8.78-12.77 15.96-15.16 3.19-.8 6.39-1.6 9.58-1.6 3.99.8 7.18 3.19 11.17 5.59 9.58 5.59 19.95-.8 24.74-9.58 4.79-9.58 3.99-20.75 0-30.33-8.78-19.95-28.73-31.13-49.48-33.52-29.53-3.19-56.67 8.78-75.82 31.93-8.78 11.97-15.96 23.94-20.75 38.31-15.16 45.49.8 94.98 33.52 129.3 35.12 36.71 86.2 51.08 135.68 46.29h0z"/><path d="M202.42 347.46c-26.97 0-54.26-7.36-78.81-21.5-32.52-18.73-56.57-47.45-67.7-80.85-12.74-39.92-7.03-79.29 16.08-110.87 15.28-19.53 33.18-31.63 54.72-37.02 15.61-4 32.08-3.21 46.37 2.22 15.1 5.74 26.98 16.15 34.34 30.1 5.4 10.31 6.22 23.84 2.08 34.46-3.22 8.27-9.06 14.13-16.88 16.95-7.97 2.9-15.29-.52-21.76-3.53l-2.78-1.28c-6.27-3.14-13.11 1.14-17.43 6.17-5.67 7.09-7.23 15.99-4.62 26.42 5.89 25.26 29.91 37.28 50.41 40.11 23.67 2.37 47.59-5.7 65.6-22.15 17.42-15.24 28.88-36.57 34.07-63.41 6.13-34.48-2.15-67.57-24.6-98.34-33.27-44.61-87.46-67.16-145.33-60.61a10.79 10.79 0 0 1-2.47.29c-.42 0-.77-.33-.8-.75s.28-.79.7-.84l2.3-.28c1.19-.28 2.28-.76 3.35-1.22.74-.32 1.45-.62 2.18-.87.05-.02.11-.03.17-.04 23.29-2.49 46.55 2.82 66.53 8 .04 0 .07.02.1.03 50.42 20.69 69.91 44.7 80.18 60.97 10.77 17.95 17.2 33.78 20.86 51.34 4.23 23.67 2.06 45.84-6.43 65.92-6.56 17.63-17.26 33.09-30.95 44.69-14.58 12.36-31.99 19.71-50.33 21.24-16.98.95-30.56-1.62-42.74-8.07-21.22-11.79-37.47-36.75-27.5-61.66 1.85-3.7 7.09-12.51 16.45-15.62 3.24-.81 6.54-1.64 9.83-1.64.05 0 .1 0 .16.02 3.37.67 6.21 2.45 9.22 4.32l2.21 1.36c3.42 1.99 7.23 2.49 11.01 1.44 5-1.39 9.72-5.4 12.62-10.72 4.26-8.53 4.26-19.34-.04-29.64-7.95-18.07-26.21-30.42-48.84-33.04-28.54-3.09-55.92 8.45-75.12 31.64-10.04 13.69-16.4 25.44-20.61 38.05-14.25 42.74-1.47 91.98 33.34 128.49 32.89 34.38 82.1 51.17 135.03 46.05.43-.03.81.26.87.69s-.23.82-.66.89c-8.04 1.37-16.2 2.05-24.38 2.05zm-34.89-180.02c-3.07.01-6.24.81-9.3 1.57-6.04 2.02-11.84 7.54-15.44 14.75-9.6 24 6.22 48.16 26.81 59.6 11.9 6.3 25.21 8.81 41.87 7.88 17.99-1.5 35.08-8.71 49.41-20.86 13.48-11.42 24.02-26.66 30.5-44.07 6.4-15.14 9.16-31.47 8.25-48.74.27 8.57-.37 17.25-1.92 26.01-5.27 27.21-16.9 48.84-34.58 64.31-18.33 16.74-42.7 24.95-66.85 22.54-21.06-2.9-45.7-15.28-51.78-41.32-2.73-10.94-1.07-20.3 4.94-27.82 4.73-5.52 12.28-10.13 19.34-6.6.89.39 1.83.83 2.77 1.27 6.49 3.02 13.19 6.15 20.54 3.48 7.38-2.66 12.89-8.2 15.94-16.03 3.98-10.21 3.19-23.22-2.01-33.14-7.18-13.6-18.76-23.75-33.5-29.35-13.99-5.32-30.12-6.09-45.41-2.17-21.19 5.3-38.8 17.22-53.84 36.43-15.63 21.37-23.19 46.37-22.33 72.69-.32-13.27 1.56-26.48 5.78-39.12 4.26-12.78 10.69-24.66 20.86-38.53 19.57-23.65 47.47-35.39 76.55-32.25 23.2 2.68 41.94 15.39 50.13 33.99 4.48 10.74 4.47 22.04-.02 31.01-3.12 5.71-8.2 10.01-13.61 11.52-4.2 1.17-8.44.62-12.25-1.61l-2.24-1.38c-2.98-1.86-5.56-3.47-8.61-4.1zm97.8-112.69c1.25 1.43 2.47 2.88 3.66 4.36-1.14-1.42-2.36-2.88-3.66-4.36zM143.83 1.6c-3.48 0-6.97.15-10.46.47a181.38 181.38 0 0 1 12.71-.45l-2.25-.02z"/><path d="M266.57 307.11c-1.6 1.6-3.19 3.19-5.59 3.99-39.91 15.96-84.6 15.96-123.71-4.79-32.72-16.76-56.67-45.49-64.65-83.01-7.18-35.12 2.39-69.44 28.73-93.38 19.95-16.76 47.09-24.74 71.83-13.57 11.97 5.59 22.35 14.37 26.34 27.93 3.99 14.37-3.19 31.13-18.36 34.32-8.78-2.39-20.75-2.39-24.74 7.98-7.18 23.15 14.37 44.69 36.71 47.09 47.09 5.59 83.8-39.11 85.4-83.8.8-34.32-15.16-65.45-39.91-89.39-19.95-17.56-43.9-27.14-70.24-31.93-29.53-4.79-57.47 1.6-84.6 11.97C135.66 14.98 201.9 22.96 244.2 64.46c20.75 20.75 34.32 47.09 35.92 76.62.8 24.74-5.59 47.89-21.55 67.84-5.59 6.38-11.97 11.17-19.16 16.76-13.57 8.78-27.93 11.17-43.1 11.17-23.94-.8-48.69-20.75-46.29-46.29 1.6-9.58 8.78-19.16 19.95-20.75 7.18 2.39 15.96 2.39 21.55-3.99 7.18-9.58 4.79-21.55-.8-31.13-9.58-14.37-26.34-20.75-43.1-20.75-32.72.8-59.86 24.74-70.24 55.87-6.39 19.95-6.39 39.91-1.6 59.86 7.98 29.53 25.54 51.88 51.08 68.64 43.1 28.73 94.98 30.33 139.67 8.78h0z"/><path d="M203.05,323.33c-1.41,0-2.82-.02-4.24-.06-21.93-.62-42.75-6.09-61.91-16.25-34.21-17.52-57.32-47.2-65.05-83.54-7.43-36.33,3.13-70.64,28.98-94.14,22.57-18.96,49.74-24.08,72.7-13.7,14.16,6.61,23.17,16.18,26.78,28.44,2.24,8.06,1.06,17.01-3.16,23.95-3.62,5.95-9.23,9.99-15.8,11.38-.12.03-.25.02-.37-.01-4.44-1.21-19.27-4.25-23.79,7.5-3.52,11.34.35,20.74,4.22,26.63,6.86,10.44,19.35,18.04,31.83,19.38,19.06,2.26,37.35-3.58,52.88-16.89,18.63-15.96,30.75-41.31,31.64-66.15.74-31.78-13.35-63.32-39.66-88.79-18.32-16.12-41.17-26.5-69.82-31.71-25.37-4.11-52.12-.32-84.17,11.93-.4.15-.85-.03-1.02-.43-.17-.39,0-.85.38-1.04,53.63-26.4,119.97-16.49,161.33,24.09,22.12,22.12,34.62,48.8,36.15,77.15.85,26.3-6.46,49.3-21.72,68.38-5.24,5.99-11.01,10.47-17.69,15.65l-1.6,1.24c-12.14,7.86-25.56,11.34-43.59,11.34-13.66-.46-27.79-7.16-36.89-17.5-7.67-8.71-11.2-18.97-10.2-29.67,1.58-9.47,8.56-19.74,20.63-21.47.12-.02.25,0,.37.03,12.16,4.05,18.53-1.28,20.7-3.76,2.8-3.74,8.41-14.27-.89-30.2-8.62-12.92-24.08-20.36-42.41-20.36-30.77.75-58.7,22.98-69.48,55.32-2.93,9.16-4.91,15.35-6,20.6.76-7.12,2.25-14.13,4.48-21.1,11-32.99,39.52-55.66,70.98-56.42,18.89,0,34.84,7.69,43.78,21.11,6.91,11.84,7.18,23.51.77,32.05-4.96,5.68-13.26,7.27-22.26,4.33-11.16,1.69-17.63,11.27-19.1,20.07-1.21,12.89,4.67,22.57,9.81,28.41,8.82,10.02,22.51,16.52,35.72,16.96,17.67,0,30.83-3.41,42.64-11.05l1.54-1.2c6.61-5.13,12.33-9.57,17.45-15.42,12.09-15.12,19.11-32.78,20.94-52.63-2.44,23.34-14.29,46.44-31.78,61.42-15.88,13.61-34.59,19.58-54.1,17.26-13.12-1.41-25.76-9.1-32.98-20.09-5.74-8.73-7.3-18.68-4.4-28.03,4.95-12.88,20.54-9.89,25.53-8.57,6.14-1.34,11.17-5.01,14.58-10.6,3.99-6.57,5.11-15.05,2.99-22.68-3.47-11.79-12.19-21.02-25.91-27.42-22.38-10.11-48.92-5.08-70.98,13.46-25.4,23.09-35.78,56.85-28.46,92.61.58,2.7,1.24,5.37,1.98,8-.12-.41-.23-.83-.34-1.24-1.91-7.94-3.03-15.67-3.36-23.24.78,5.64,2.43,12.53,4.91,22.84,7.71,28.51,24.3,50.81,50.74,68.16,20.71,13.81,44.51,21.8,68.84,23.12,23.65,1.28,47.87-3.69,70.04-14.39.35-.17.77-.06,1,.26.23.32.19.75-.09,1.03-1.63,1.64-3.33,3.33-5.9,4.18-19.04,7.62-38.6,11.47-58.19,11.47ZM98.82,275.14c9.4,11.08,20.96,20.56,34.38,28.08-2.28-1.34-4.53-2.75-6.74-4.23-10.82-7.1-20.01-15.02-27.64-23.85ZM255.54,78.57c15.7,21.35,24.01,45.42,23.83,69.72.06-2.36.05-4.75-.02-7.16-1.21-22.38-9.37-43.73-23.8-62.56Z"/><path d="M300.1,260.82c-.8.8-.8,2.39-1.6,3.19-22.35,21.55-48.69,34.32-79.01,39.11-38.31,4.79-75.82-5.59-103.76-33.52-11.17-11.97-20.75-24.74-25.54-40.7-5.59-18.36-6.39-38.31,0-56.67,5.59-15.16,14.37-28.73,28.73-38.31,16.76-11.97,35.92-13.57,54.27-5.59,13.57,7.18,23.15,21.55,18.36,37.51-3.19,9.58-12.77,11.17-21.55,13.57-3.19.8-4.79,4.79-6.39,7.98-2.39,7.18,0,14.37,4.79,19.95,5.59,7.18,13.57,11.97,23.15,13.57,24.74,4.79,46.29-8.78,59.06-28.73,11.97-19.95,15.16-41.5,10.38-63.85-10.38-46.29-51.08-76.62-96.57-82.21-42.3-4.79-84.6,10.38-114.13,41.5,1.6-1.6,2.39-3.99,3.99-5.59,26.34-24.74,60.66-38.31,96.57-38.31,36.71.8,71.83,15.16,94.98,47.09,17.56,25.54,23.94,55.87,14.37,85.4-6.39,19.15-19.95,34.32-37.51,43.1-18.36,7.98-42.3,7.98-56.67-8.78-5.59-6.39-9.58-14.37-7.98-23.15,1.6-6.38,4.79-11.97,10.38-15.16,3.99-.8,7.98-.8,11.97-2.39,6.38-3.19,7.98-11.97,7.18-18.36-2.39-11.17-10.38-19.16-20.75-22.35-5.59-1.6-10.38-2.39-15.96-2.39-25.54,0-46.29,17.56-56.67,39.91-15.96,36.71-2.39,79.01,27.14,106.15,23.94,20.75,53.47,31.13,84.6,30.33,35.12-1.6,68.64-17.56,94.18-42.3h0Z"/><path d="M201.62 305.04c-33.44 0-63.65-12.08-86.46-34.88-9.22-9.88-20.47-23.46-25.74-41.04-6.07-19.93-6.06-39.7.01-57.16 6.36-17.26 15.86-29.92 29.04-38.71 16.59-11.85 36.15-13.87 55.03-5.65 13.06 6.91 23.9 21.47 18.8 38.47-3.04 9.11-11.46 11.31-19.61 13.45l-2.5.66c-2.5.62-3.95 3.6-5.35 6.49l-.51 1.03c-2.07 6.29-.38 13.26 4.66 19.13 5.58 7.17 13.41 11.76 22.67 13.3 22.35 4.33 44.12-6.28 58.26-28.38 11.64-19.41 15.1-40.69 10.27-63.25-4.91-21.92-16.96-41.26-34.84-55.92-17.05-13.98-38.16-22.85-61.05-25.66-20.68-2.34-41.94.16-61.49 7.24a135.64 135.64 0 0 0-51.72 33.76c-.08.09-.17.18-.26.27a.79.79 0 0 1-1.12 0 .8.8 0 0 1-.02-1.12c.08-.08.16-.17.24-.25.62-.69 1.12-1.52 1.65-2.4.61-1.02 1.25-2.08 2.12-2.95 26.46-24.86 60.96-38.54 97.14-38.54 40.13.87 74.09 17.71 95.62 47.42 18.59 27.03 23.72 57.61 14.48 86.11-6.35 19.05-19.81 34.52-37.91 43.57-9.82 4.27-20.55 6.03-30.27 4.97-11.12-1.21-20.58-6.03-27.36-13.94-6.76-7.73-9.59-15.96-8.16-23.81 1.85-7.42 5.47-12.69 10.76-15.71a.99.99 0 0 1 .24-.09c1.36-.27 2.72-.45 4.04-.63 2.69-.36 5.22-.7 7.79-1.72 5.72-2.86 7.49-11.09 6.69-17.52-2.25-10.5-9.62-18.43-20.19-21.68-5.78-1.65-10.49-2.36-15.73-2.36-23.21 0-44.65 15.11-55.94 39.44-14.95 34.38-4.12 76.67 26.95 105.23 23.66 20.5 52.72 30.93 84.04 30.12 33.97-1.54 67.23-16.49 93.64-42.08a.79.79 0 1 1 1.12 1.13c-.27.27-.43.76-.61 1.28-.22.64-.46 1.38-.99 1.91-22.05 21.26-48.77 34.49-79.45 39.33-6.08.76-12.09 1.14-17.99 1.14zm-77.92-29.2c10.1 8.51 21.42 15.13 33.65 19.75-12.01-4.68-23.31-11.29-33.65-19.75zm-7.64-7.06c.08.09.17.18.25.27l.42.42-.67-.69zm34.47-144.55c-10.9 0-21.53 3.47-31.15 10.34-12.91 8.61-22.21 21.01-28.45 37.94-5.96 17.13-5.95 36.55.01 56.16 3.91 13.04 11.19 23.87 18.44 32.58-22.63-28.07-29.16-64.51-15.94-94.92 11.57-24.92 33.56-40.39 57.4-40.39 5.39 0 10.23.72 16.18 2.42 11 3.38 18.96 11.96 21.31 22.95.91 7.27-1.1 15.98-7.61 19.24-2.81 1.13-5.57 1.5-8.23 1.85-1.25.17-2.55.34-3.81.59-4.84 2.81-8.17 7.72-9.89 14.6-1.34 7.4 1.28 14.97 7.81 22.43 9.45 11.03 29.72 19.89 55.75 8.57 1.75-.88 3.46-1.81 5.12-2.81-11.05 6.2-23.47 8.36-36.08 5.92-9.65-1.61-17.82-6.4-23.62-13.86-5.4-6.3-7.2-13.85-4.92-20.7.01-.04.03-.07.04-.1l.52-1.07c1.49-3.06 3.18-6.53 6.38-7.33l2.49-.66c8.09-2.12 15.74-4.12 18.49-12.38 3.48-11.6-.72-27.42-17.97-36.55-7.39-3.21-14.9-4.81-22.29-4.81zm112.42 36.6c-1.69 11.03-5.58 21.64-11.65 31.76-2.33 3.64-4.85 6.97-7.56 9.98 6.99-7.57 12.35-16.58 15.69-26.61 1.62-4.99 2.79-10.05 3.51-15.13zM183.87 49.25c15.7 4.49 30.15 11.97 42.5 22.1 4.95 4.06 9.45 8.46 13.5 13.18-14.53-17.1-33.71-29.12-56-35.28z"/><path d="M349.58 208.94c-.8 2.39-.8 4.79-1.6 7.18-8.78 20.75-21.55 38.31-37.51 55.07-19.95 19.95-43.9 31.92-71.03 39.11-47.09 11.97-96.57-.8-129.3-36.71-19.95-22.35-30.33-49.48-27.93-79.01 3.19-29.53 20.75-57.47 49.48-67.04 17.56-5.59 37.51-3.19 50.28 11.17 7.18 8.78 10.38 19.95 4.79 30.33-3.99 5.59-10.38 8.78-15.96 12.77-7.18 11.97-.8 24.74 10.38 31.93 16.76 9.58 35.12 7.18 51.08-3.19 26.34-17.56 36.71-47.09 33.52-77.42-3.99-29.53-19.15-54.27-43.9-72.63-34.32-25.54-76.62-30.33-117.32-19.15C55.87 55.7 18.36 93.21.8 139.5c.8-2.39.8-4.79 1.6-7.18 16.75-40.7 49.48-72.63 90.18-88.59 50.28-19.95 110.94-10.38 148.45 31.13 24.74 27.93 35.12 67.84 20.75 102.96-6.39 15.96-17.56 30.33-34.32 39.11-17.56 8.78-38.31 9.58-54.27-3.19-8.78-7.18-14.37-18.36-11.17-30.33 2.39-8.78 11.97-11.17 17.56-16.76 6.39-7.18 3.99-16.76-1.6-23.94-12.77-15.96-34.32-16.76-51.08-9.58-23.15 10.38-37.51 31.93-41.5 56.67-4.79 32.72 7.18 64.65 31.13 87.79 15.96 15.16 35.12 25.54 56.67 31.13 75.02 19.16 150.85-30.33 176.39-99.77h0z"/><path d="M204.84 315.46c-12.12 0-24.12-1.6-35.65-4.79-23.04-6.38-43.67-19.02-59.64-36.55-20.75-23.24-30.48-50.77-28.14-79.62 3.48-32.19 23.11-58.76 50.03-67.73 19.72-6.27 39.3-1.9 51.13 11.4 8.33 10.18 10.11 21.56 4.89 31.24-.02.03-.03.06-.05.09-3.08 4.31-7.56 7.24-11.89 10.08l-4.13 2.78c-7.1 12.02.3 24.33 10.21 30.7 15.53 8.88 33.38 7.75 50.21-3.19 24.48-16.32 36.57-44.27 33.16-76.67-3.9-28.89-18.97-53.82-43.58-72.07-32.31-24.05-73.73-30.8-116.64-19.03C81.36 49 59.5 61.77 41.54 79.02c-17.44 16.77-31.28 37.78-40 60.77-.15.41-.6.61-1.01.47-.41-.15-.63-.59-.49-1 .38-1.14.57-2.27.77-3.47.2-1.21.41-2.46.83-3.71 16.71-40.6 49.74-73.05 90.65-89.09 53.27-21.14 113.29-8.55 149.33 31.33 12.6 14.23 21.32 31.22 25.23 49.15 4.1 18.81 2.6 37.7-4.33 54.65-7.07 17.66-19.06 31.33-34.69 39.51-19.67 9.84-40.28 8.61-55.14-3.28-10.16-8.31-14.43-19.96-11.45-31.16 1.65-6.06 6.5-9.19 11.18-12.21 2.43-1.57 4.73-3.05 6.59-4.91 6.34-7.13 3.3-16.51-1.66-22.89-12.68-15.85-34.32-16.11-50.14-9.33-21.91 9.82-36.87 30.26-41.03 56.06-4.66 31.86 6.6 63.61 30.89 87.09 15.68 14.9 34.63 25.31 56.31 30.93 35.2 8.99 72.89 3.1 106.14-16.58 31.58-18.69 56.84-48.83 69.29-82.69a.8.8 0 0 1 1.01-.48c.41.14.63.59.49 1.01-.38 1.14-.57 2.27-.77 3.47-.2 1.21-.41 2.46-.83 3.71-8.21 19.4-20.18 36.98-37.69 55.37-18.7 18.7-42.05 31.56-71.41 39.33-11.5 2.93-23.21 4.39-34.8 4.39zm-55.78-189.91c-5.56 0-11.33.9-17.13 2.74-26.31 8.77-45.52 34.82-48.93 66.37-2.3 28.38 7.29 55.5 27.74 78.4 15.76 17.3 36.13 29.78 58.88 36.08 19.53 5.41 40.42 6.18 60.93 2.32-19.2 3.44-38.72 2.83-57.55-1.97-21.95-5.69-41.13-16.23-57.02-31.32-24.67-23.85-36.11-56.1-31.37-88.49 4.25-26.36 19.55-47.23 41.97-57.28 8.89-3.81 18.65-5.21 27.48-3.95 10.01 1.43 18.5 6.19 24.55 13.76 5.37 6.9 8.59 17.07 1.57 24.97-2.01 2.01-4.49 3.61-6.88 5.16-4.63 2.99-9.01 5.82-10.5 11.28-2.82 10.58 1.26 21.6 10.91 29.5 14.35 11.48 34.32 12.64 53.41 3.1 15.27-8 27.01-21.38 33.94-38.69 6.81-16.65 8.28-35.22 4.25-53.71-3.85-17.66-12.44-34.41-24.86-48.43-35.32-39.07-93.96-51.61-146.31-31.4 3.36-1.26 6.77-2.4 10.2-3.41 43.4-11.91 85.31-5.07 118.03 19.28 24.96 18.52 40.25 43.82 44.21 73.16 3.48 33.03-8.87 61.52-33.87 78.19-17.37 11.29-35.8 12.43-51.92 3.22-10.61-6.82-18.45-20.05-10.66-33.03.06-.09.13-.18.22-.24 1.41-1.01 2.89-1.97 4.32-2.91 4.19-2.75 8.53-5.59 11.43-9.63 4.86-9.07 3.14-19.79-4.73-29.4-7.93-8.92-19.53-13.66-32.3-13.66zm165.32 140.27c-10.11 10.42-21.58 19.55-34.03 26.91a155.42 155.42 0 0 1-16.15 8.34c17.77-7.53 32.86-17.59 45.71-30.44l4.47-4.81z"/><path d="M335.21,149.08c0,2.39.8,4.79.8,7.18-1.6,29.53-11.17,56.67-29.53,82.21-8.78,11.17-18.36,19.95-29.53,28.73-35.12,25.54-79.81,32.72-119.72,15.16-34.32-15.16-60.66-49.48-57.47-87.79,2.39-20.75,11.97-39.91,31.13-51.08,13.57-7.18,29.53-8.78,42.3.8,8.78,6.39,12.77,17.56,8.78,27.14-3.19,5.59-10.38,8.78-8.78,16.76.8,4.79,3.99,8.78,7.18,11.97,10.38,8.78,23.94,7.98,35.92,2.39,11.17-4.79,19.16-13.57,24.74-24.74,13.57-25.54,7.98-54.27-8.78-78.22-11.97-16.76-27.14-27.93-46.29-35.12-21.55-7.98-43.9-7.98-67.04-3.19-32.72,7.98-58.26,26.34-77.42,55.07-16.76,25.54-24.74,52.68-26.34,82.21-1.6-51.88,27.93-102.96,75.02-127.7,41.5-21.55,92.58-19.95,129.3,11.17,23.94,20.75,36.71,51.88,29.53,83.01-4.79,19.15-17.56,35.92-36.71,43.1-16.76,6.39-38.31.8-44.7-17.56-2.39-7.18.8-14.37,6.38-19.95,7.18-8.78,1.6-20.75-7.98-25.54-25.54-11.97-53.47,9.58-60.66,34.32-5.59,19.16-3.19,39.11,5.59,57.47,16.76,32.72,50.28,51.08,85.4,52.68,30.33,1.6,60.66-7.98,85.4-27.93,34.32-27.93,52.68-69.44,53.47-112.54h0Z"/><path d="M203.17 292.81c-15.78 0-31.47-3.2-46.26-9.71-17.38-7.68-32.7-20.28-43.14-35.5-11.22-16.34-16.34-34.7-14.8-53.09 2.66-23.04 13.85-41.4 31.52-51.7 15.68-8.3 31.4-7.98 43.18.85 9.37 6.81 13.09 18.36 9.04 28.08-.01.03-.03.06-.04.09-1.07 1.87-2.54 3.46-3.98 5-2.94 3.17-5.72 6.17-4.71 11.2.83 4.95 4.37 8.97 6.96 11.56 8.98 7.59 21.75 8.42 35.01 2.24 10.29-4.41 18.48-12.61 24.37-24.38 12.47-23.47 9.29-51.68-8.72-77.4-11.56-16.18-26.58-27.58-45.92-34.83-19.74-7.31-41.53-8.35-66.6-3.16-32.48 7.92-57.65 25.83-76.92 54.73-15.97 24.34-24.55 51.1-26.21 81.81a.8.8 0 0 1-.8.76h0c-.43 0-.77-.35-.79-.77-.79-25.7 5.91-51.44 19.36-74.45 13.54-23.15 32.93-41.81 56.09-53.98 44.04-22.87 95.14-18.44 130.18 11.27 25.26 21.89 36.67 53.99 29.79 83.79-5.21 20.84-18.77 36.75-37.21 43.67-9.74 3.71-20.94 3.42-29.96-.79-7.62-3.55-13.08-9.52-15.77-17.26-2.26-6.77.14-14.34 6.57-20.78 2.64-3.24 3.6-7.18 2.71-11.35-1.13-5.3-5.15-10.24-10.48-12.91-12.22-5.73-23.46-3.01-30.73.28-13.33 6.03-24.64 19.2-28.8 33.55-5.37 18.42-3.46 38.09 5.54 56.9 7.94 15.51 20.23 28.54 35.5 37.67 14.6 8.72 31.62 13.75 49.21 14.55 30.54 1.6 60.67-8.25 84.86-27.76 32.97-26.84 52.36-67.64 53.18-111.93 0-.43.36-.78.8-.78h0c.44 0 .79.36.79.8 0 1.13.19 2.26.39 3.46.2 1.21.41 2.46.41 3.72-1.63 30.12-11.34 57.15-29.68 82.67-7.91 10.07-17.06 18.98-29.69 28.89-22.69 16.5-48.61 24.98-74.28 24.98zm-50.4-154.41c-6.88 0-14.2 1.93-21.51 5.8-22.05 12.86-28.87 34.54-30.71 50.47-1.5 17.99 3.52 36 14.53 52.03 10.27 14.97 25.35 27.38 42.46 34.94 36.22 15.94 77.93 11.77 112.93-10.96-22.18 14.12-48.04 21.03-74.19 19.67-17.85-.81-35.12-5.92-49.95-14.78-15.54-9.28-28.03-22.54-36.12-38.33-9.18-19.19-11.12-39.26-5.64-58.05 4.29-14.78 15.94-28.34 29.68-34.56 10.86-4.92 21.96-5.01 32.09-.26 5.77 2.89 10.11 8.25 11.35 14.01 1 4.66-.07 9.07-3.09 12.76-3.57 3.58-9.06 10.75-6.25 19.2 2.54 7.31 7.71 12.96 14.93 16.33 8.64 4.02 19.37 4.3 28.72.74 17.94-6.73 31.15-22.24 36.22-42.55 6.74-29.21-4.48-60.71-29.28-82.21A105.58 105.58 0 0 0 189.43 65c18.11 7.4 32.34 18.6 43.45 34.14 18.37 26.24 21.59 55.05 8.83 79.05-6.05 12.1-14.51 20.55-25.13 25.1-13.82 6.45-27.23 5.54-36.75-2.52-2.8-2.8-6.56-7.07-7.45-12.45-1.16-5.8 2.03-9.25 5.11-12.58 1.36-1.47 2.76-2.98 3.74-4.67 3.73-9.02.23-19.77-8.53-26.14-5.81-4.36-12.64-6.54-19.95-6.54zm156.45 94.73c-2.64 3.79-5.46 7.45-8.45 10.97a143.49 143.49 0 0 0 5.09-6.12 168.76 168.76 0 0 0 3.37-4.85zM40.74 116.07c-1.98 2.88-3.85 5.83-5.63 8.87-7.9 13.51-13.44 27.97-16.48 42.8 4.28-18.55 11.6-35.63 22.11-51.67zM148.1 57.23c-4.54 0-9.11.26-13.69.79 4.7-.51 9.28-.77 13.76-.79h-.07z"/><path d="M311.27,109.97c.8,1.6,2.39,3.99,3.19,5.59,11.17,48.69-3.19,99.77-41.5,133.29-37.51,32.72-94.98,39.11-134.09,4.79-15.96-14.37-25.54-33.52-26.34-54.27-.8-13.57,3.99-25.54,11.97-36.71,9.58-11.97,24.74-18.36,39.91-14.37,7.98,2.39,15.16,9.58,15.96,18.36,0,5.59-3.99,10.38-3.19,15.96s3.99,10.38,9.58,12.77c26.34,7.98,47.09-17.56,48.69-42.3,1.6-29.53-15.96-54.27-41.5-68.64-23.15-11.97-49.48-13.57-75.02-6.39-23.94,7.18-43.1,20.75-58.26,40.7-26.34,35.12-31.93,78.22-21.55,119.72-.8-2.39-2.39-3.99-3.19-6.38-10.38-49.48,2.39-98.97,41.5-132.49,27.14-22.35,60.66-33.52,95.78-24.74,19.16,4.79,35.12,14.37,47.89,29.53,12.77,15.96,19.16,35.12,15.96,55.07-3.19,19.95-16.76,38.31-37.51,41.5-10.38,1.6-19.95-1.6-26.34-10.38-4.79-7.98-1.6-16.76.8-24.74-1.6-7.18-7.18-13.57-15.16-14.37-20.75-2.39-38.31,14.37-42.3,34.32-1.6,7.18-.8,13.57-.8,19.95,1.6,24.74,19.15,45.49,40.7,57.47,28.73,15.16,62.25,14.37,90.99.8,28.73-14.37,50.28-39.11,61.46-69.44,9.58-27.14,11.17-56.67,2.39-84.6h0Z"/><path d="M200.67 277.35c-23.27 0-45.21-8.1-62.32-23.12-16.37-14.73-25.82-34.21-26.61-54.84-.74-12.58 3.22-24.75 12.12-37.21 10.36-12.96 25.97-18.57 40.76-14.67 8.98 2.69 15.78 10.53 16.55 19.06 0 2.76-.87 5.25-1.71 7.65-.98 2.79-1.9 5.43-1.49 8.27.81 5.65 4.02 9.96 9.06 12.13 9.68 2.92 19.24 1.38 27.66-4.45 11.17-7.74 19-22.32 19.96-37.15 1.47-27.21-13.89-52.59-41.1-67.89-22.31-11.54-48.05-13.73-74.42-6.31-23.64 7.09-42.56 20.31-57.84 40.42-24.75 33-32.35 75.27-21.41 119.04a.8.8 0 0 1-.55.96.8.8 0 0 1-.98-.51c-.37-1.11-.93-2.05-1.52-3.03-.61-1.02-1.24-2.07-1.67-3.35 0-.03-.02-.06-.02-.09C24.13 179.76 39.35 131.19 76.9 99c29.46-24.26 63.72-33.1 96.49-24.91 19.79 4.95 35.59 14.69 48.3 29.79 13.66 17.08 19.24 36.34 16.14 55.71-2.96 18.52-15.92 38.74-38.18 42.16-11.21 1.72-20.83-2.07-27.1-10.7-4.69-7.81-2.1-16.32.19-23.83l.43-1.41c-1.45-6.2-6.44-12.75-14.42-13.54-16.68-1.93-36.73 10.15-41.44 33.68-1.18 5.32-1.03 10.24-.88 15.01l.1 4.79c1.44 22.31 16.51 43.55 40.29 56.77 27.57 14.55 60.48 14.84 90.26.77 28.16-14.08 49.84-38.58 61.05-68.99 9.97-28.24 10.79-57.32 2.38-84.09a.81.81 0 0 1 .46-.98.79.79 0 0 1 1.01.38c.39.77.99 1.77 1.57 2.74.6.99 1.21 2.02 1.63 2.85.03.06.05.12.06.18 5.59 24.36 4.83 49.52-2.21 72.74-7.21 23.79-20.88 45-39.55 61.33-18.88 16.47-42.64 26.31-66.92 27.73-1.97.12-3.94.17-5.89.17zm-45.41-129.46c-11.26 0-22.27 5.43-30.13 15.26-8.65 12.11-12.52 23.95-11.8 36.17.78 20.22 10.04 39.29 26.08 53.73 18.23 15.99 42.05 24 67.06 22.54 11.86-.69 23.59-3.42 34.67-7.98-28.44 11.29-59.08 10.04-85.08-3.69-24.28-13.49-39.65-35.21-41.13-58.12 0-1.62-.05-3.23-.1-4.79-.15-4.86-.31-9.89.92-15.39 3.83-19.17 21.03-37.49 43.17-34.94 8.84.88 14.34 8.16 15.85 14.99a.9.9 0 0 1-.01.4l-.49 1.62c-2.3 7.54-4.67 15.34-.39 22.49 5.86 8.06 14.94 11.63 25.53 10 21.47-3.3 33.97-22.89 36.85-40.84 3.03-18.92-2.44-37.74-15.8-54.45C207.98 90.07 192.45 80.5 173 75.63c-15.19-3.8-30.71-3.87-45.91-.39 23.82-4.91 46.9-2.02 67.22 8.49 27.77 15.62 43.44 41.56 41.93 69.39-.99 15.31-9.09 30.36-20.64 38.37-8.84 6.13-18.89 7.74-29.07 4.65-.03 0-.06-.02-.08-.03-5.59-2.4-9.16-7.15-10.05-13.39-.46-3.23.57-6.17 1.57-9.02.83-2.38 1.62-4.63 1.62-7.05-.71-7.82-7.05-15.09-15.39-17.59-2.96-.78-5.95-1.16-8.92-1.16zM36.69 231.88l.21.56c-7.02-33.26-3.39-65.47 10.27-93.24-13.68 27.01-17.53 59.02-10.48 92.68z"/><path d="M301.69,50.11c1.6,1.6,3.99,3.19,5.59,5.59,15.96,25.54,23.94,53.47,25.54,83.01.8,32.72-7.98,64.65-27.93,92.58-21.55,27.93-49.48,47.09-84.6,51.88-28.73,3.19-56.67-3.19-79.81-21.55-22.35-19.16-34.32-48.69-26.34-77.42,4.79-16.76,18.36-31.92,36.71-34.32,13.57-1.6,27.93,7.98,28.73,22.35-2.39,7.98,2.39,16.76,10.38,19.16,22.35,6.39,40.7-13.57,44.7-34.32,5.59-29.53-7.98-55.07-31.92-72.63-38.31-27.14-85.4-23.94-123.71,2.39-31.13,22.35-50.28,52.68-57.46,90.19-7.98,43.9,3.99,85.4,27.14,121.32-1.6-1.6-3.99-3.19-5.59-5.59-23.15-38.31-31.93-80.61-21.55-123.71,4.79-19.16,11.97-35.92,23.94-51.88,11.17-14.37,23.15-26.34,39.11-35.92,23.15-13.57,48.69-19.95,75.82-15.96,18.36,2.39,35.12,9.58,49.48,21.55,20.75,16.76,31.93,42.3,28.73,68.64-2.39,15.96-11.17,31.13-26.34,39.11-14.37,7.18-36.71,3.99-39.91-14.37-1.6-4.79-.8-10.38-2.39-15.16-1.6-3.99-5.59-6.38-8.78-7.18-21.55-8.78-42.3,11.97-45.49,33.52-2.39,16.76,0,32.72,8.78,47.09,21.55,35.12,62.25,49.48,102.96,41.5,34.32-7.18,61.46-26.34,80.61-55.87,35.12-54.27,30.33-123.71-6.39-173.99h0Z"/><path d="M48.69 299.13c-.21 0-.41-.08-.56-.23-.48-.48-1.06-.98-1.66-1.5-1.35-1.16-2.87-2.48-4.02-4.21-24.14-39.96-31.63-82.94-21.66-124.34 5.13-20.53 12.78-37.11 24.08-52.17 12.63-16.24 24.76-27.37 39.34-36.12 24.7-14.48 50.39-19.89 76.35-16.07 18.72 2.44 35.51 9.75 49.88 21.73 21.34 17.23 32.19 43.16 29.01 69.35-2.65 17.7-12.41 32.16-26.76 39.72-9.24 4.62-21.11 4.86-29.55.6-6.3-3.18-10.28-8.53-11.51-15.47-.81-2.47-1.02-5.14-1.22-7.72-.19-2.5-.39-5.09-1.16-7.39-1.51-3.77-5.37-5.95-8.22-6.66-.04 0-.07-.02-.11-.04-7.87-3.21-16.14-2.57-23.89 1.86-10.56 6.02-18.61 18.21-20.51 31.04-2.49 17.41.43 33.07 8.67 46.56 10.29 16.77 25.47 29.42 43.9 36.59 17.86 6.94 37.99 8.52 58.22 4.55 33.84-7.08 60.79-25.76 80.09-55.52 16.89-26.11 25.06-56.55 23.62-88.02-1.41-30.72-11.78-60.14-29.98-85.07-.25-.34-.19-.81.13-1.08a.8.8 0 0 1 1.08.04c.48.48 1.06.98 1.66 1.5 1.35 1.16 2.87 2.48 4.02 4.21 15.38 24.6 24.01 52.66 25.67 83.4.83 34.03-8.88 66.21-28.08 93.09-23.23 30.11-51.87 47.67-85.14 52.21-4.75.53-9.45.79-14.06.79-24.93 0-47.65-7.66-66.36-22.51-24.1-20.65-34.28-50.63-26.61-78.26 5.41-18.95 20.08-32.64 37.38-34.9 7.4-.87 15.26 1.51 21.03 6.36 5.19 4.36 8.24 10.3 8.6 16.73 0 .09 0 .19-.03.27-1.1 3.65-.66 7.58 1.23 11.06s4.95 6 8.61 7.1c8.16 2.33 16.39 1.16 23.79-3.38 9.84-6.05 17.46-17.67 19.9-30.32 5.21-27.55-6.01-53.06-31.61-71.84-18.28-12.95-39.5-19.4-61.36-18.7-21.1.69-42.35 7.99-61.43 21.11-30.74 22.07-49.96 52.24-57.13 89.68-7.31 40.2 2.03 81.96 27.02 120.73.22.34.15.8-.17 1.05-.15.12-.32.18-.5.18zM89.86 79.21c-1.62.87-3.24 1.77-4.86 2.72-14.39 8.64-26.39 19.65-38.88 35.72-11.16 14.88-18.72 31.27-23.8 51.58-9.86 40.97-2.44 83.54 21.46 123.1.32.48.68.93 1.06 1.35C22.02 256 13.7 215.74 20.77 176.87c7.25-37.86 26.69-68.37 57.79-90.69 3.7-2.54 7.47-4.87 11.31-6.97zm63.94 71.3c-.96 0-1.91.05-2.86.17-18.94 2.47-31.75 18.73-36.04 33.75-7.5 27.02 2.49 56.37 26.09 76.59 21.82 17.3 49.21 24.7 79.21 21.36 14.31-1.95 27.76-6.35 40.27-13.15-10.1 5.22-21.06 9.07-32.84 11.54-20.54 4.03-40.98 2.43-59.12-4.63-18.76-7.3-34.21-20.17-44.69-37.24-8.44-13.81-11.43-29.83-8.89-47.62 1.97-13.3 10.33-25.94 21.3-32.2 8.18-4.67 16.9-5.35 25.23-1.97 3.2.82 7.53 3.3 9.27 7.65.85 2.53 1.05 5.22 1.25 7.82.19 2.5.39 5.09 1.16 7.39l.03.12c1.12 6.45 4.81 11.43 10.66 14.38 8.01 4.05 19.3 3.81 28.1-.59 13.88-7.31 23.33-21.35 25.91-38.51 3.1-25.61-7.53-51.01-28.44-67.9-13.85-11.54-29.97-18.68-47.95-21.23 14.81 2.59 28.98 8.52 41.73 17.56 12.47 9.15 21.65 19.96 27.3 32.14 6.01 12.97 7.68 26.87 4.95 41.29-2.52 13.08-10.42 25.11-20.63 31.39-7.78 4.78-16.45 6.01-25.07 3.55-4.08-1.22-7.47-4.02-9.56-7.87-2.07-3.82-2.57-8.12-1.4-12.15-.37-5.93-3.21-11.42-8.02-15.46-4.7-3.96-10.87-6.17-16.95-6.17z"/><path d="M238.64,26.97c2.39,0,3.99.8,6.38,2.39,47.89,33.52,71.03,87.79,59.06,145.26-8.78,39.91-35.92,71.83-73.43,84.6-41.5,14.37-95.78-5.59-103.76-53.47-3.19-21.55,9.58-47.09,32.72-47.09,6.38,0,13.57,2.39,16.76,8.78,2.39,4.79,3.19,10.38,7.18,13.57,10.38,7.18,22.35,1.6,29.53-7.98,11.97-16.76,9.58-36.71-.8-53.47-15.16-23.94-43.1-34.32-70.24-32.72-25.54,1.6-47.89,13.57-65.45,31.93-24.74,26.34-35.12,63.05-31.13,98.97,5.59,43.1,31.13,79.81,66.24,103.76-1.6-1.6-3.99-1.6-6.39-2.39-47.89-34.32-71.83-88.59-58.26-146.06,3.99-17.56,9.58-33.52,21.55-47.89,16.76-20.75,39.11-35.12,65.45-39.11,32.72-4.79,68.64,7.18,83.8,38.31,5.59,11.17,7.18,23.15,4.79,35.92-3.19,15.16-15.96,29.53-31.92,29.53-7.98,0-15.96-4.79-17.56-12.77-1.6-7.18-7.18-11.97-13.57-12.77-19.95-2.39-31.13,20.75-29.53,38.31,1.6,16.76,9.58,30.33,21.55,40.7,32.72,27.14,79.01,23.15,110.94-3.19,22.35-19.16,35.92-43.1,41.5-71.83,4.79-26.34.8-51.88-9.58-76.62-6.39-12.77-12.77-24.74-22.35-35.92-10.38-11.17-21.55-19.95-33.52-28.73h0Z"/><path d="M111.74 322.27c-.16 0-.31-.05-.45-.14l-1.36-.94c-.75-.34-1.61-.54-2.56-.76l-2.27-.6a.53.53 0 0 1-.21-.11c-24.01-17.2-42.14-39.58-52.45-64.69-10.6-25.84-12.72-54.26-6.12-82.19 3.42-15.06 8.68-32.58 21.71-48.22 17.7-21.91 40.5-35.53 65.94-39.39 16.86-2.47 34.23-.43 48.91 5.74 16.16 6.79 28.51 18.2 35.73 33.01 5.64 11.27 7.27 23.53 4.86 36.41-3.08 14.64-15.59 30.18-32.71 30.18-7.78 0-16.58-4.61-18.34-13.41-1.46-6.57-6.52-11.34-12.88-12.13-6.68-.8-12.88 1.37-17.93 6.27-7.44 7.23-11.75 19.76-10.71 31.18 1.5 15.72 8.66 29.24 21.28 40.17 15.54 12.88 34.63 19.2 55.21 18.26 19.58-.89 39-8.52 54.7-21.47 22.08-18.93 35.57-42.27 41.23-71.37 4.5-24.73 1.29-50.36-9.53-76.16-6.18-12.36-12.55-24.42-22.22-35.71-9.96-10.73-20.55-19.2-33.39-28.61-.28-.2-.39-.56-.29-.89.11-.33.41-.55.76-.55 2.57 0 4.31.85 6.83 2.53 23.82 16.67 41.89 38.8 52.27 64.01 10.53 25.55 12.99 53.93 7.13 82.08-8.94 40.63-36.58 72.47-73.95 85.19-23.42 8.11-51.06 5.36-72.15-7.17-17.77-10.56-29.37-27.23-32.66-46.93-1.97-13.29 1.91-27.46 10.13-36.98 6.23-7.22 14.31-11.03 23.38-11.03 8.06 0 14.59 3.45 17.47 9.22.78 1.55 1.39 3.19 1.98 4.77 1.25 3.34 2.43 6.49 4.99 8.54 7.36 5.09 19.02 4.66 28.39-7.84 10.79-15.11 10.49-34.28-.84-52.58-13.93-21.99-39.92-34.09-69.51-32.35-24.08 1.51-46.53 12.46-64.92 31.68-23.77 25.31-35.04 61.15-30.91 98.33 5.19 40.07 28.65 77.23 64.46 102.19a5.64 5.64 0 0 1 1.56 1.09.8.8 0 0 1 .05 1.07.79.79 0 0 1-.61.29zm-6.02-3.91a7.32 7.32 0 0 0 .44.13c-33.77-24.92-55.94-60.82-61.3-99.52 4.13 38.53 25.29 73.86 60.86 99.39zm53.91-158.9c-8.59 0-16.26 3.62-22.17 10.48-7.8 9.04-11.63 23.05-9.76 35.69 3.2 19.22 14.53 35.49 31.89 45.81 20.69 12.29 47.82 14.99 70.81 7.03l1.31-.45c-7.89 2.59-16.06 4.13-24.25 4.5-20.98.96-40.45-5.49-56.31-18.64-12.96-11.23-20.3-25.1-21.83-41.24-1.08-11.87 3.42-24.92 11.19-32.47 5.4-5.25 12.05-7.56 19.23-6.71 7.05.88 12.64 6.14 14.25 13.39 1.6 7.98 9.65 12.15 16.78 12.15 12.15 0 27.19-10.13 31.14-28.9 2.35-12.52.76-24.43-4.72-35.39-15.71-32.26-53-42.26-82.97-37.88-25.03 3.79-47.49 17.22-64.94 38.82-6.75 8.1-11.38 16.73-14.75 25.25 5.31-12.06 12.54-23.11 21.53-32.69 18.67-19.52 41.48-30.64 65.98-32.18 30.18-1.78 56.71 10.6 70.96 33.09 11.69 18.88 11.97 38.69.77 54.37-6.99 9.32-19.55 15.84-30.63 8.17-2.94-2.35-4.26-5.86-5.53-9.26-.58-1.54-1.17-3.13-1.91-4.61-2.61-5.22-8.61-8.34-16.05-8.34zm137.51 34.91c-6.86 16.53-17.03 30.87-30.72 43.37 13.28-11.55 23.82-26.34 30.72-43.37zm-21.19-135.3c8.06 10.29 13.73 21.11 19.27 32.19 4.09 9.74 7.1 19.45 9.04 29.1-4.04-22.33-13.65-43.2-28.31-61.29zm-33.76-30.48c11 8.18 20.38 15.84 29.24 25.16-7.75-8.68-16.73-16.65-26.86-23.74-.9-.6-1.66-1.07-2.38-1.42z"/></svg>