{
	"asset":{
		"generator":"Khronos glTF Blender I/O v4.3.47",
		"version":"2.0"
	},
	"extensionsUsed":[
		"KHR_materials_clearcoat",
		"KHR_materials_emissive_strength"
	],
	"scene":0,
	"scenes":[
		{
			"name":"Scene",
			"nodes":[
				0
			]
		}
	],
	"nodes":[
		{
			"mesh":0,
			"name":"Ashtray"
		}
	],
	"materials":[
		{
			"doubleSided":true,
			"emissiveFactor":[
				0,
				1,
				0.007891120013859713
			],
			"extensions":{
				"KHR_materials_clearcoat":{
					"clearcoatRoughnessFactor":0
				},
				"KHR_materials_emissive_strength":{
					"emissiveStrength":35.54020393832434
				}
			},
			"name":"Procedural pearl black painted plastic.003",
			"pbrMetallicRoughness":{
				"baseColorFactor":[
					0,
					0,
					0,
					1
				],
				"metallicFactor":0,
				"roughnessFactor":0.5
			}
		},
		{
			"doubleSided":true,
			"emissiveFactor":[
				0.20445391535758972,
				1,
				0
			],
			"extensions":{
				"KHR_materials_emissive_strength":{
					"emissiveStrength":17.599998474121094
				}
			},
			"name":"Material.010",
			"pbrMetallicRoughness":{
				"baseColorFactor":[
					0,
					0,
					0,
					1
				]
			}
		}
	],
	"meshes":[
		{
			"name":"Circle_007",
			"primitives":[
				{
					"attributes":{
						"POSITION":0,
						"NORMAL":1,
						"TEXCOORD_0":2,
						"TEXCOORD_1":3
					},
					"indices":4,
					"material":0
				},
				{
					"attributes":{
						"POSITION":5,
						"NORMAL":6,
						"TEXCOORD_0":7,
						"TEXCOORD_1":8
					},
					"indices":9,
					"material":1
				}
			]
		}
	],
	"accessors":[
		{
			"bufferView":0,
			"componentType":5126,
			"count":2982,
			"max":[
				0.5010188221931458,
				0.36362695693969727,
				0.494720458984375
			],
			"min":[
				-0.49898117780685425,
				-0.23637306690216064,
				-0.505279541015625
			],
			"type":"VEC3"
		},
		{
			"bufferView":1,
			"componentType":5126,
			"count":2982,
			"type":"VEC3"
		},
		{
			"bufferView":2,
			"componentType":5126,
			"count":2982,
			"type":"VEC2"
		},
		{
			"bufferView":3,
			"componentType":5126,
			"count":2982,
			"type":"VEC2"
		},
		{
			"bufferView":4,
			"componentType":5123,
			"count":4926,
			"type":"SCALAR"
		},
		{
			"bufferView":5,
			"componentType":5126,
			"count":48,
			"max":[
				0.39720529317855835,
				0.1890239417552948,
				0.3909069299697876
			],
			"min":[
				-0.39516758918762207,
				0.1806703805923462,
				-0.40146589279174805
			],
			"type":"VEC3"
		},
		{
			"bufferView":6,
			"componentType":5126,
			"count":48,
			"type":"VEC3"
		},
		{
			"bufferView":7,
			"componentType":5126,
			"count":48,
			"type":"VEC2"
		},
		{
			"bufferView":8,
			"componentType":5126,
			"count":48,
			"type":"VEC2"
		},
		{
			"bufferView":9,
			"componentType":5123,
			"count":96,
			"type":"SCALAR"
		}
	],
	"bufferViews":[
		{
			"buffer":0,
			"byteLength":35784,
			"byteOffset":0,
			"target":34962
		},
		{
			"buffer":0,
			"byteLength":35784,
			"byteOffset":35784,
			"target":34962
		},
		{
			"buffer":0,
			"byteLength":23856,
			"byteOffset":71568,
			"target":34962
		},
		{
			"buffer":0,
			"byteLength":23856,
			"byteOffset":95424,
			"target":34962
		},
		{
			"buffer":0,
			"byteLength":9852,
			"byteOffset":119280,
			"target":34963
		},
		{
			"buffer":0,
			"byteLength":576,
			"byteOffset":129132,
			"target":34962
		},
		{
			"buffer":0,
			"byteLength":576,
			"byteOffset":129708,
			"target":34962
		},
		{
			"buffer":0,
			"byteLength":384,
			"byteOffset":130284,
			"target":34962
		},
		{
			"buffer":0,
			"byteLength":384,
			"byteOffset":130668,
			"target":34962
		},
		{
			"buffer":0,
			"byteLength":192,
			"byteOffset":131052,
			"target":34963
		}
	],
	"buffers":[
		{
			"byteLength":131244,
			"uri":"Ashtray.bin"
		}
	]
}
